# xmcd
#
# Track frame offsets:
#	150
#	6212
#	21245
#	29702
#	46362
#	53159
#	66024
#	69577
#	77001
#	81921
#	89926
#	98336
#	103099
#	109417
#	114201
#	128500
#	141819
#	149914
#	159171
#	164790
#
# Disc length: 2365 seconds
#
# Revision: 0
# Processed by: cddbd v1.5.2PL0 Copyright (c) Steve Scherf et al.
# Submitted via: EasyCDDAExtractor 11.1.0.1
#
DISCID=19093b14
DTITLE=E-Sens - New blood, Rapper Vol.1
DYEAR=2008
DGENRE=Hip-Hop
TTITLE0=Still Rappin'
TTITLE1=M.C (Feat. 개코 from 다이나믹 듀오) [prod by. 개코]
TTITLE2=피똥 (Feat. Simon Dominic)
TTITLE3=꽐라 remix (Feat. Swings, Verbal Jint) [prod by VASCO)
TTITLE4=Make Music (Feat. Absotyle)
TTITLE5=Rhyme King (Feat. 도끼)
TTITLE6=체험 mc 현장
TTITLE7=열정 (Feat. Beatbox DG)
TTITLE8=기권은 없다.
TTITLE9=Paper up (Feat. Big Tray)
TTITLE10=알어 (Feat. Absotyle)
TTITLE11=이도저도
TTITLE12=깽값
TTITLE13=Brother
TTITLE14=부르마블 [prod by. Primary]
TTITLE15=딜레마
TTITLE16=와이키키 브라더스
TTITLE17=한국에서 (Feat. Simon Dominic)
TTITLE18=One More Chance
TTITLE19=드러워 [prod by jin醉]
EXTD=
EXTT0=
EXTT1=
EXTT2=
EXTT3=
EXTT4=
EXTT5=
EXTT6=
EXTT7=
EXTT8=
EXTT9=
EXTT10=
EXTT11=
EXTT12=
EXTT13=
EXTT14=
EXTT15=
EXTT16=
EXTT17=
EXTT18=
EXTT19=
PLAYORDER=
